<?xml version="1.0" standalone="no"?>
<!DOCTYPE svg PUBLIC "-//W3C//DTD SVG 20010904//EN"
 "http://www.w3.org/TR/2001/REC-SVG-20010904/DTD/svg10.dtd">
<svg version="1.0" xmlns="http://www.w3.org/2000/svg"
 width="256.000000pt" height="256.000000pt" viewBox="0 0 256.000000 256.000000"
 preserveAspectRatio="xMidYMid meet">
<metadata>
Created by potrace 1.14, written by Peter Selinger 2001-2017
</metadata>
<g transform="translate(0.000000,256.000000) scale(0.100000,-0.100000)"
fill="#000000" stroke="none">
<path d="M895 2553 c-402 -64 -718 -357 -796 -738 -18 -87 -26 -275 -12 -288
3 -4 19 16 35 44 119 218 347 382 605 435 107 23 319 15 423 -16 102 -29 239
-102 328 -174 142 -114 258 -294 306 -473 12 -48 25 -82 29 -77 20 33 68 173
81 237 20 98 20 257 0 355 -68 329 -311 581 -649 674 -69 19 -283 32 -350 21z"/>
<path d="M1950 2067 c43 -66 100 -188 121 -259 30 -105 37 -297 14 -409 -39
-193 -114 -331 -259 -474 -133 -132 -253 -201 -432 -251 -77 -21 -312 -30
-384 -15 -29 6 -55 9 -58 6 -10 -10 135 -143 207 -190 272 -176 619 -197 906
-53 298 150 495 470 495 809 0 158 -53 343 -137 477 -102 165 -288 319 -455
378 l-40 14 22 -33z"/>
<path d="M737 1804 c-363 -66 -652 -357 -722 -729 -21 -111 -15 -274 14 -387
72 -276 274 -508 538 -618 289 -121 634 -79 883 107 l65 48 -90 8 c-260 23
-458 116 -626 295 -178 189 -269 463 -239 720 22 190 112 386 231 507 70 73
71 72 -54 49z"/>
</g>
</svg>
